<?xml version="1.0" encoding="UTF-8"?>
<svg xmlns="http://www.w3.org/2000/svg" xmlns:xlink="http://www.w3.org/1999/xlink" width="595.2756pt" height="595.2756pt" viewBox="0 0 595.2756 595.2756" version="1.1">
<defs>
<clipPath id="clip1">
  <path d="M 219 126 L 378 126 L 378 285 L 219 285 Z M 219 126 "/>
</clipPath>
<clipPath id="clip2">
  <path d="M 377.105469 205.296875 C 377.105469 248.90625 341.753906 284.261719 298.140625 284.261719 C 254.53125 284.261719 219.179688 248.90625 219.179688 205.296875 C 219.179688 161.6875 254.53125 126.335938 298.140625 126.335938 C 341.753906 126.335938 377.105469 161.6875 377.105469 205.296875 "/>
</clipPath>
<linearGradient id="linear0" gradientUnits="userSpaceOnUse" x1="298.14" y1="468.9408" x2="298.14" y2="311.0145" gradientTransform="matrix(1,0,0,-1,0,595.2756)">
<stop offset="0" style="stop-color:rgb(78.823853%,3.529358%,5.097961%);stop-opacity:1;"/>
<stop offset="0.015625" style="stop-color:rgb(78.823853%,3.529358%,5.097961%);stop-opacity:1;"/>
<stop offset="0.03125" style="stop-color:rgb(78.823853%,4.705811%,5.097961%);stop-opacity:1;"/>
<stop offset="0.046875" style="stop-color:rgb(79.216003%,5.882263%,5.097961%);stop-opacity:1;"/>
<stop offset="0.0625" style="stop-color:rgb(79.216003%,6.666565%,5.097961%);stop-opacity:1;"/>
<stop offset="0.078125" style="stop-color:rgb(79.608154%,7.450867%,5.097961%);stop-opacity:1;"/>
<stop offset="0.09375" style="stop-color:rgb(80.000305%,7.450867%,5.097961%);stop-opacity:1;"/>
<stop offset="0.109375" style="stop-color:rgb(80.000305%,7.843018%,5.097961%);stop-opacity:1;"/>
<stop offset="0.125" style="stop-color:rgb(80.000305%,8.627319%,5.097961%);stop-opacity:1;"/>
<stop offset="0.140625" style="stop-color:rgb(80.392456%,9.411621%,5.097961%);stop-opacity:1;"/>
<stop offset="0.15625" style="stop-color:rgb(80.392456%,10.195923%,5.097961%);stop-opacity:1;"/>
<stop offset="0.171875" style="stop-color:rgb(80.784607%,10.195923%,5.097961%);stop-opacity:1;"/>
<stop offset="0.1875" style="stop-color:rgb(80.784607%,10.588074%,5.097961%);stop-opacity:1;"/>
<stop offset="0.203125" style="stop-color:rgb(81.176758%,11.372375%,5.097961%);stop-opacity:1;"/>
<stop offset="0.21875" style="stop-color:rgb(81.176758%,11.764526%,5.097961%);stop-opacity:1;"/>
<stop offset="0.234375" style="stop-color:rgb(81.568909%,12.156677%,5.097961%);stop-opacity:1;"/>
<stop offset="0.25" style="stop-color:rgb(81.568909%,12.156677%,5.097961%);stop-opacity:1;"/>
<stop offset="0.265625" style="stop-color:rgb(81.96106%,12.940979%,5.097961%);stop-opacity:1;"/>
<stop offset="0.28125" style="stop-color:rgb(81.96106%,13.33313%,5.097961%);stop-opacity:1;"/>
<stop offset="0.296875" style="stop-color:rgb(82.35321%,13.725281%,5.097961%);stop-opacity:1;"/>
<stop offset="0.3125" style="stop-color:rgb(82.35321%,14.117432%,5.097961%);stop-opacity:1;"/>
<stop offset="0.328125" style="stop-color:rgb(82.745361%,14.117432%,5.097961%);stop-opacity:1;"/>
<stop offset="0.34375" style="stop-color:rgb(82.745361%,14.509583%,5.097961%);stop-opacity:1;"/>
<stop offset="0.359375" style="stop-color:rgb(83.137512%,15.293884%,5.097961%);stop-opacity:1;"/>
<stop offset="0.375" style="stop-color:rgb(83.137512%,15.686035%,5.097961%);stop-opacity:1;"/>
<stop offset="0.390625" style="stop-color:rgb(83.529663%,16.078186%,5.097961%);stop-opacity:1;"/>
<stop offset="0.40625" style="stop-color:rgb(83.529663%,16.078186%,5.097961%);stop-opacity:1;"/>
<stop offset="0.421875" style="stop-color:rgb(83.921814%,16.862488%,5.097961%);stop-opacity:1;"/>
<stop offset="0.4375" style="stop-color:rgb(83.921814%,17.254639%,5.097961%);stop-opacity:1;"/>
<stop offset="0.453125" style="stop-color:rgb(84.313965%,17.64679%,5.097961%);stop-opacity:1;"/>
<stop offset="0.46875" style="stop-color:rgb(84.313965%,18.03894%,5.097961%);stop-opacity:1;"/>
<stop offset="0.484375" style="stop-color:rgb(84.313965%,18.03894%,5.097961%);stop-opacity:1;"/>
<stop offset="0.5" style="stop-color:rgb(84.706116%,18.431091%,5.097961%);stop-opacity:1;"/>
<stop offset="0.515625" style="stop-color:rgb(85.098267%,18.823242%,5.097961%);stop-opacity:1;"/>
<stop offset="0.53125" style="stop-color:rgb(85.098267%,19.215393%,5.097961%);stop-opacity:1;"/>
<stop offset="0.546875" style="stop-color:rgb(85.098267%,19.607544%,5.097961%);stop-opacity:1;"/>
<stop offset="0.5625" style="stop-color:rgb(85.490417%,19.999695%,5.097961%);stop-opacity:1;"/>
<stop offset="0.578125" style="stop-color:rgb(85.490417%,20.391846%,5.097961%);stop-opacity:1;"/>
<stop offset="0.59375" style="stop-color:rgb(85.490417%,20.783997%,5.097961%);stop-opacity:1;"/>
<stop offset="0.609375" style="stop-color:rgb(85.882568%,21.176147%,5.097961%);stop-opacity:1;"/>
<stop offset="0.625" style="stop-color:rgb(85.882568%,21.176147%,5.097961%);stop-opacity:1;"/>
<stop offset="0.640625" style="stop-color:rgb(86.274719%,21.568298%,5.097961%);stop-opacity:1;"/>
<stop offset="0.65625" style="stop-color:rgb(86.66687%,21.960449%,5.097961%);stop-opacity:1;"/>
<stop offset="0.671875" style="stop-color:rgb(86.66687%,22.3526%,5.097961%);stop-opacity:1;"/>
<stop offset="0.6875" style="stop-color:rgb(87.059021%,22.744751%,5.097961%);stop-opacity:1;"/>
<stop offset="0.703125" style="stop-color:rgb(87.059021%,22.744751%,5.097961%);stop-opacity:1;"/>
<stop offset="0.71875" style="stop-color:rgb(87.059021%,23.136902%,5.097961%);stop-opacity:1;"/>
<stop offset="0.734375" style="stop-color:rgb(87.451172%,23.921204%,4.705811%);stop-opacity:1;"/>
<stop offset="0.75" style="stop-color:rgb(87.843323%,24.313354%,4.705811%);stop-opacity:1;"/>
<stop offset="0.765625" style="stop-color:rgb(87.843323%,24.705505%,4.705811%);stop-opacity:1;"/>
<stop offset="0.78125" style="stop-color:rgb(88.235474%,24.705505%,4.705811%);stop-opacity:1;"/>
<stop offset="0.796875" style="stop-color:rgb(88.627625%,25.097656%,4.705811%);stop-opacity:1;"/>
<stop offset="0.8125" style="stop-color:rgb(88.627625%,25.489807%,4.705811%);stop-opacity:1;"/>
<stop offset="0.828125" style="stop-color:rgb(89.019775%,26.274109%,4.705811%);stop-opacity:1;"/>
<stop offset="0.84375" style="stop-color:rgb(89.019775%,26.66626%,4.31366%);stop-opacity:1;"/>
<stop offset="0.859375" style="stop-color:rgb(89.019775%,26.66626%,4.31366%);stop-opacity:1;"/>
<stop offset="0.875" style="stop-color:rgb(89.411926%,27.058411%,4.31366%);stop-opacity:1;"/>
<stop offset="0.890625" style="stop-color:rgb(89.411926%,27.450562%,4.31366%);stop-opacity:1;"/>
<stop offset="0.90625" style="stop-color:rgb(89.804077%,27.842712%,4.31366%);stop-opacity:1;"/>
<stop offset="0.921875" style="stop-color:rgb(89.804077%,28.234863%,4.31366%);stop-opacity:1;"/>
<stop offset="0.9375" style="stop-color:rgb(90.588379%,28.234863%,3.921509%);stop-opacity:1;"/>
<stop offset="0.953125" style="stop-color:rgb(90.588379%,28.627014%,3.921509%);stop-opacity:1;"/>
<stop offset="0.96875" style="stop-color:rgb(90.98053%,29.019165%,3.921509%);stop-opacity:1;"/>
<stop offset="0.984375" style="stop-color:rgb(90.98053%,29.411316%,3.921509%);stop-opacity:1;"/>
<stop offset="1" style="stop-color:rgb(90.98053%,29.803467%,3.921509%);stop-opacity:1;"/>
</linearGradient>
</defs>
<g id="surface1">
<path style=" stroke:none;fill-rule:evenodd;fill:rgb(0%,0%,0%);fill-opacity:1;" d="M 52.078125 56.53125 C 52.078125 56.53125 126.449219 160.082031 116.917969 346.019531 C 116.917969 346.019531 106.40625 468.1875 84.953125 527.785156 C 84.953125 527.785156 195.195313 339.242188 543.199219 338.347656 C 543.199219 338.347656 429.042969 308.773438 387.621094 284.042969 C 387.621094 284.042969 323.554688 362.410156 224.03125 299.832031 C 224.03125 299.832031 154.304688 253.347656 182.316406 162.765625 C 182.316406 162.765625 91.730469 96.613281 52.078125 56.53125 "/>
<g clip-path="url(#clip1)" clip-rule="nonzero">
<g clip-path="url(#clip2)" clip-rule="evenodd">
<path style=" stroke:none;fill-rule:nonzero;fill:url(#linear0);" d="M 219.179688 284.261719 L 219.179688 126.335938 L 377.105469 126.335938 L 377.105469 284.261719 Z M 219.179688 284.261719 "/>
</g>
</g>
<path style=" stroke:none;fill-rule:nonzero;fill:rgb(89.019775%,0%,5.882263%);fill-opacity:1;" d="M 217.445313 494.15625 L 217.445313 491.726563 L 211.449219 491.726563 L 211.449219 459.78125 L 211.109375 459.78125 L 185.699219 493.832031 L 185.699219 494.15625 L 208.730469 494.15625 L 208.730469 501.875 L 211.449219 501.875 L 211.449219 494.15625 Z M 208.730469 491.726563 L 190.679688 491.726563 L 190.679688 491.40625 L 208.394531 467.660156 L 208.730469 467.660156 Z M 253.15625 481.257813 C 253.15625 472.679688 248.289063 460.644531 237.648438 460.644531 C 227.011719 460.644531 222.144531 472.730469 222.144531 481.257813 C 222.144531 489.679688 226.785156 502.414063 237.648438 502.414063 C 248.515625 502.414063 253.15625 489.679688 253.15625 481.257813 Z M 250.441406 481.257813 C 250.441406 488.597656 246.761719 499.984375 237.648438 499.984375 C 228.539063 499.984375 224.859375 488.597656 224.859375 481.257813 C 224.859375 474.835938 228.539063 463.070313 237.648438 463.070313 C 246.761719 463.070313 250.441406 474.835938 250.441406 481.257813 Z M 288.242188 481.257813 C 288.242188 472.679688 283.375 460.644531 272.738281 460.644531 C 262.097656 460.644531 257.230469 472.730469 257.230469 481.257813 C 257.230469 489.679688 261.871094 502.414063 272.738281 502.414063 C 283.601563 502.414063 288.242188 489.679688 288.242188 481.257813 Z M 285.527344 481.257813 C 285.527344 488.597656 281.847656 499.984375 272.738281 499.984375 C 263.625 499.984375 259.945313 488.597656 259.945313 481.257813 C 259.945313 474.835938 263.625 463.070313 272.738281 463.070313 C 281.847656 463.070313 285.527344 474.835938 285.527344 481.257813 Z M 322.988281 488.21875 C 322.988281 480.449219 316.3125 473.917969 308.105469 473.917969 C 306.125 473.917969 304.257813 474.296875 302.445313 475 L 302.332031 474.890625 L 311.726563 462.207031 L 309.519531 460.644531 L 295.769531 479.261719 C 293.675781 482.070313 292.65625 484.765625 292.65625 488.21875 C 292.65625 496.207031 299.449219 502.414063 307.765625 502.414063 C 312.011719 502.414063 315.859375 501.011719 318.746094 497.988281 C 321.292969 495.34375 322.988281 491.890625 322.988281 488.21875 Z M 320.273438 488.167969 C 320.273438 494.695313 314.613281 499.984375 307.824219 499.984375 C 301.03125 499.984375 295.371094 494.695313 295.371094 488.167969 C 295.371094 481.691406 301.03125 476.347656 307.824219 476.347656 C 314.613281 476.347656 320.273438 481.691406 320.273438 488.167969 "/>
<path style=" stroke:none;fill-rule:nonzero;fill:rgb(0%,0%,0%);fill-opacity:1;" d="M 368.039063 463.613281 L 368.039063 461.183594 L 343.253906 461.183594 L 343.253906 463.613281 L 354.289063 463.613281 L 354.289063 501.875 L 357.003906 501.875 L 357.003906 463.613281 Z M 394.636719 451.902344 C 394.636719 450.660156 393.675781 449.742188 392.375 449.742188 C 391.074219 449.742188 390.109375 450.660156 390.109375 451.902344 C 390.109375 453.140625 391.074219 454.058594 392.375 454.058594 C 393.675781 454.058594 394.636719 453.140625 394.636719 451.902344 Z M 384.054688 451.902344 C 384.054688 450.660156 383.09375 449.742188 381.792969 449.742188 C 380.488281 449.742188 379.527344 450.660156 379.527344 451.902344 C 379.527344 453.140625 380.488281 454.058594 381.792969 454.058594 C 383.09375 454.058594 384.054688 453.140625 384.054688 451.902344 Z M 401.542969 461.183594 L 398.824219 461.183594 L 398.824219 485.792969 C 398.824219 489.40625 398.824219 493.347656 396.617188 496.046875 C 394.523438 498.636719 390.394531 499.984375 387.054688 499.984375 C 383.714844 499.984375 379.585938 498.636719 377.492188 496.046875 C 375.285156 493.347656 375.285156 489.40625 375.285156 485.792969 L 375.285156 461.183594 L 372.566406 461.183594 L 372.566406 486.546875 C 372.566406 490.757813 372.566406 494.210938 375.453125 497.664063 C 378.339844 500.847656 382.753906 502.414063 387.054688 502.414063 C 391.355469 502.414063 395.769531 500.847656 398.65625 497.664063 C 401.542969 494.210938 401.542969 490.757813 401.542969 486.546875 Z M 435.15625 490.542969 C 435.15625 485.359375 431.535156 481.257813 426.328125 480.289063 C 429.722656 478.398438 431.253906 475.699219 431.253906 471.976563 C 431.253906 468.738281 430.347656 465.714844 427.6875 463.558594 C 425.140625 461.398438 422.085938 461.183594 418.859375 461.183594 L 410.3125 461.183594 L 410.3125 501.875 L 421.234375 501.875 C 425.085938 501.875 428.195313 501.390625 431.195313 498.960938 C 433.855469 496.800781 435.15625 493.832031 435.15625 490.542969 Z M 428.535156 471.597656 C 428.535156 474.40625 427.800781 476.457031 425.367188 478.128906 C 422.933594 479.800781 420.613281 479.640625 417.726563 479.640625 L 413.03125 479.640625 L 413.03125 463.613281 L 417.726563 463.613281 C 420.21875 463.613281 422.820313 463.613281 425.027344 464.90625 C 427.460938 466.363281 428.535156 468.953125 428.535156 471.597656 Z M 432.441406 490.648438 C 432.441406 493.671875 430.914063 496.207031 428.253906 497.882813 C 425.59375 499.554688 422.539063 499.445313 419.539063 499.445313 L 413.03125 499.445313 L 413.03125 482.070313 L 419.027344 482.070313 C 421.914063 482.070313 425.367188 482.121094 428.027344 483.363281 C 430.914063 484.710938 432.441406 487.628906 432.441406 490.648438 Z M 445.910156 451.902344 C 445.910156 450.660156 444.945313 449.742188 443.644531 449.742188 C 442.34375 449.742188 441.382813 450.660156 441.382813 451.902344 C 441.382813 453.140625 442.34375 454.058594 443.644531 454.058594 C 444.945313 454.058594 445.910156 453.140625 445.910156 451.902344 Z M 445.003906 501.875 L 445.003906 461.183594 L 442.289063 461.183594 L 442.289063 501.875 Z M 474.714844 463.613281 L 474.714844 461.183594 L 449.925781 461.183594 L 449.925781 463.613281 L 460.960938 463.613281 L 460.960938 501.875 L 463.679688 501.875 L 463.679688 463.613281 Z M 507.3125 501.875 L 489.484375 459.832031 L 471.601563 501.875 L 474.375 501.875 L 480.089844 488.492188 L 498.820313 488.492188 L 504.539063 501.875 Z M 497.804688 486.0625 L 481.109375 486.0625 L 489.484375 466.417969 Z M 540.078125 501.875 L 517.894531 480.773438 L 538.777344 461.183594 L 535.152344 461.183594 L 514.894531 480.179688 L 514.894531 461.183594 L 512.175781 461.183594 L 512.175781 501.875 L 514.894531 501.875 L 514.894531 483.527344 L 516.027344 482.445313 L 536.511719 501.875 Z M 540.078125 501.875 "/>
</g>
</svg>
